<?xml version="1.0" standalone="no"?>
<!DOCTYPE svg PUBLIC "-//W3C//DTD SVG 20010904//EN"
 "http://www.w3.org/TR/2001/REC-SVG-20010904/DTD/svg10.dtd">
<svg version="1.0" xmlns="http://www.w3.org/2000/svg"
 width="252.000000pt" height="252.000000pt" viewBox="0 0 252.000000 252.000000"
 preserveAspectRatio="xMidYMid meet">
<metadata>
Created by potrace 1.14, written by Peter Selinger 2001-2017
</metadata>
<g transform="translate(0.000000,252.000000) scale(0.100000,-0.100000)"
fill="#000000" stroke="none">
<path d="M1025 2494 c-157 -34 -194 -43 -240 -59 -53 -19 -78 -27 -83 -26 -2
1 -77 -38 -157 -82 -22 -12 -77 -58 -122 -103 -93 -91 -115 -132 -160 -291
-23 -85 -27 -119 -30 -259 -2 -125 1 -174 13 -215 9 -30 18 -65 21 -79 2 -14
11 -33 20 -43 15 -16 14 -21 -18 -64 -28 -40 -34 -58 -37 -113 -3 -55 0 -72
24 -115 71 -132 92 -184 98 -235 16 -139 31 -181 78 -230 14 -14 45 -63 69
-110 46 -89 178 -238 198 -225 6 3 11 2 11 -3 0 -8 25 -21 52 -26 4 0 39 -27
78 -59 38 -31 72 -57 76 -57 3 0 21 -12 40 -26 19 -15 34 -23 34 -19 0 5 8 1
18 -8 36 -33 270 -54 377 -34 17 3 44 9 60 12 40 8 125 49 152 75 12 11 26 20
31 20 5 0 15 7 22 15 10 12 16 12 34 3 11 -7 23 -13 26 -13 3 -1 21 -6 40 -13
43 -14 150 -13 169 2 8 6 16 10 18 9 19 -15 107 70 130 125 23 55 18 136 -12
197 -33 69 -32 87 12 124 56 48 73 84 84 180 5 47 14 90 19 95 6 6 10 21 10
34 0 28 35 103 60 130 9 9 24 42 34 71 22 69 15 122 -24 185 -35 54 -34 51
-17 68 23 23 44 100 47 178 9 193 1 297 -31 440 -6 25 -12 53 -15 64 -6 33
-61 142 -85 171 -55 65 -98 104 -145 130 -27 16 -52 33 -55 38 -3 5 -9 9 -12
8 -4 0 -26 9 -49 19 -24 11 -48 20 -54 20 -6 0 -17 7 -24 15 -7 8 -16 12 -21
9 -5 -3 -15 -2 -21 2 -7 5 -19 9 -28 10 -8 2 -60 15 -115 29 -130 33 -137 34
-355 38 -126 3 -204 0 -245 -9z"/>
</g>
</svg>
